# xmcd CD database file
#
# Track frame offsets:
#	150
#	2081
#	8209
#	12006
#	25227
#	30212
#	35293
#	50932
#	72810
#	76032
#	93982
#	114988
#	132627
#	147723
#	165659
#	169405
#	212554
#	245259
#	260593
#	261854
#	267936
#	288918
#
# Disc length: 4165 seconds
#
# Revision: 0
# Processed by: cddbd v1.5.1PL0 Copyright (c) Steve Scherf et al.
# Submitted via: CDex 1.51
#
DISCID=2b104316
DTITLE=Southside Johnny and Asbury Jukes - How Are Ya Doin' [CD 1)
DYEAR=2004
DGENRE=Blues
TTITLE0=Southside Johnny and Asbury Jukes - Announcement
TTITLE1=Southside Johnny and Asbury Jukes - Love On The Wrong Side Of Town (I)
TTITLE2=Southside Johnny and Asbury Jukes - Soundcheck
TTITLE3=Southside Johnny and Asbury Jukes - Love (II)
TTITLE4=Southside Johnny and Asbury Jukes - Spiritual Evening
TTITLE5=Southside Johnny and Asbury Jukes - Love (III)
TTITLE6=Southside Johnny and Asbury Jukes - Next To You
TTITLE7=Southside Johnny and Asbury Jukes - Talk To Me
TTITLE8=Southside Johnny and Asbury Jukes - Criticism
TTITLE9=Southside Johnny and Asbury Jukes - I Remember Last Might
TTITLE10=Southside Johnny and Asbury Jukes - Cadillac Jack
TTITLE11=Southside Johnny and Asbury Jukes - She's Still In Love
TTITLE12=Southside Johnny and Asbury Jukes - I Played The Fool
TTITLE13=Southside Johnny and Asbury Jukes - Comin' Back
TTITLE14=Southside Johnny and Asbury Jukes - How're Ye Doin' (I)
TTITLE15=Southside Johnny and Asbury Jukes - Soul's On Fire
TTITLE16=Southside Johnny and Asbury Jukes - Help Me
TTITLE17=Southside Johnny and Asbury Jukes - Come A Little Bit Closer
TTITLE18=Southside Johnny and Asbury Jukes - Soozie
TTITLE19=Southside Johnny and Asbury Jukes - El Paso
TTITLE20=Southside Johnny and Asbury Jukes - She Thinks I Still Care
TTITLE21=Southside Johnny and Asbury Jukes - Trapped Again
EXTD=YEAR: 2004
EXTT0=
EXTT1=
EXTT2=
EXTT3=
EXTT4=
EXTT5=
EXTT6=
EXTT7=
EXTT8=
EXTT9=
EXTT10=
EXTT11=
EXTT12=
EXTT13=
EXTT14=
EXTT15=
EXTT16=
EXTT17=
EXTT18=
EXTT19=
EXTT20=
EXTT21=
PLAYORDER=
